PathFileType	4	(X/Y/Z)	Static 1_gm.trc
DataRate	CameraRate	NumFrames	NumMarkers	Units	OrigDataRate	OrigDataStartFrame	OrigNumFrames
150	150	4	82	mm	150	265	529
Frame#	Time	P1			P2			P3			ST1			ST2			ST3			LACR1			LACR2			LACR3			LUA1			LUA2			LUA3			LUA4			LLA1			LLA2			LLA3			LLA4			LH1			LH2			LH3			RACR1			RACR2			RACR3			RUA1			RUA2			RUA3			RUA4			RLA1			RLA2			RLA3			RLA4			RH1			RH2			RH3			REL			REM			RRS			RUS			RMC3			RMCP2			RMCP3			RMCP5			RAA			RAI			RTS			RPC			RAC			RGH			C7			T8			IJ			PX			RElevationplaneH2			RShoulderElevationH2			RShoulderRotationH2			RElevationplaneH1			RShoulderElevationH1			RShoulderRotationH1			RElbowFlExt			RElbowProSupination			RWristFlExt			RWristDeviation			RScapProRetraction			RScapRotation			RScapTilting			RTrunkFlExt			RTrunkLateralFl			RTrunkAxialRotation			RH2SAG_Flexion			RH2SAG_Abduction			RH2SAG_Rotation			RH2FRONT_Abduction			RH2FRONT_Flexion			RH2FRONT_Rotation			RH1SAG_Flexion			RH1SAG_Abduction			RH1SAG_Rotation			RH1FRONT_Abduction			RH1FRONT_Flexion			RH1FRONT_Rotation			REB			HWM		
		X1	Y1	Z1	X2	Y2	Z2	X3	Y3	Z3	X4	Y4	Z4	X5	Y5	Z5	X6	Y6	Z6	X7	Y7	Z7	X8	Y8	Z8	X9	Y9	Z9	X10	Y10	Z10	X11	Y11	Z11	X12	Y12	Z12	X13	Y13	Z13	X14	Y14	Z14	X15	Y15	Z15	X16	Y16	Z16	X17	Y17	Z17	X18	Y18	Z18	X19	Y19	Z19	X20	Y20	Z20	X21	Y21	Z21	X22	Y22	Z22	X23	Y23	Z23	X24	Y24	Z24	X25	Y25	Z25	X26	Y26	Z26	X27	Y27	Z27	X28	Y28	Z28	X29	Y29	Z29	X30	Y30	Z30	X31	Y31	Z31	X32	Y32	Z32	X33	Y33	Z33	X34	Y34	Z34	X35	Y35	Z35	X36	Y36	Z36	X37	Y37	Z37	X38	Y38	Z38	X39	Y39	Z39	X40	Y40	Z40	X41	Y41	Z41	X42	Y42	Z42	X43	Y43	Z43	X44	Y44	Z44	X45	Y45	Z45	X46	Y46	Z46	X47	Y47	Z47	X48	Y48	Z48	X49	Y49	Z49	X50	Y50	Z50	X51	Y51	Z51	X52	Y52	Z52	X53	Y53	Z53	X54	Y54	Z54	X55	Y55	Z55	X56	Y56	Z56	X57	Y57	Z57	X58	Y58	Z58	X59	Y59	Z59	X60	Y60	Z60	X61	Y61	Z61	X62	Y62	Z62	X63	Y63	Z63	X64	Y64	Z64	X65	Y65	Z65	X66	Y66	Z66	X67	Y67	Z67	X68	Y68	Z68	X69	Y69	Z69	X70	Y70	Z70	X71	Y71	Z71	X72	Y72	Z72	X73	Y73	Z73	X74	Y74	Z74	X75	Y75	Z75	X76	Y76	Z76	X77	Y77	Z77	X78	Y78	Z78	X79	Y79	Z79	X80	Y80	Z80	X81	Y81	Z81	X82	Y82	Z82
	
265	1.760000	348.903198	1634.662720	-762.255798	258.275208	1703.117188	-744.323730	205.500259	1599.872314	-748.236694	327.335876	1167.284180	-27.512901	349.402100	1114.220459	4.860322	329.986572	1166.293579	28.506142	274.785339	1267.844238	-213.617386	184.357559	1229.911865	-149.908478	215.121521	1170.914795	-238.358887	229.856369	1076.176392	-215.879593	248.319519	1008.303589	-216.483200	286.997162	1026.418701	-196.317780	282.270996	1101.625488	-196.164520	445.778900	737.374634	-199.733231	515.471069	747.530029	-264.470123	548.020569	823.207336	-159.475754	458.263306	771.872925	-141.905075	530.585632	703.179565	-191.295166	580.116089	701.057739	-176.412918	543.597351	726.481140	-148.216812	288.211853	1256.483276	237.743286	242.046875	1159.504517	263.760468	205.419388	1218.197998	173.693024	307.724182	1067.366089	217.230713	317.527710	1006.322632	214.028900	263.562256	989.899170	233.315216	255.607880	1057.381958	234.015625	470.677216	779.388184	154.160858	566.184448	817.353088	154.563370	538.117554	738.744141	253.800323	458.761902	730.397034	195.898712	553.669922	728.197571	128.604309	591.573792	708.099304	153.798126	543.459412	698.351257	178.276550	330.701416	853.740601	228.967804	288.190704	838.774170	185.061813	521.121643	721.643311	122.402641	521.161438	715.861145	171.772812	559.825867	708.074280	150.848404	603.999939	704.354553	122.600372	607.239014	694.779846	149.676041	580.435913	668.731750	172.447327	190.139664	1160.817017	145.097061	157.184952	1036.927124	104.928322	175.174500	1176.672119	77.729095	292.646301	1155.691162	130.634125	267.498596	1187.798706	169.500763	266.009521	1144.311768	156.170212	196.620743	1253.103271	2.457649	152.334686	1097.060059	15.980688	301.166901	1176.232422	2.378449	354.106476	1009.329468	1.752380	0.000000	0.000000	40.532608	0.000000	0.000000	-9.915831	0.000000	0.000000	-19.030428	0.000000	0.000000	40.532608	0.000000	0.000000	-9.915831	0.000000	0.000000	1.615578	0.000000	0.000000	49.717560	0.000000	0.000000	138.806946	0.000000	0.000000	-16.597580	0.000000	0.000000	4.793440	0.000000	0.000000	10.479250	0.000000	0.000000	15.501604	0.000000	0.000000	-11.182813	0.000000	0.000000	0.167319	0.000000	0.000000	-0.151367	0.000000	0.000000	-0.028830	0.000000	0.000000	6.481434	0.000000	0.000000	-7.520401	0.000000	0.000000	21.928608	0.000000	0.000000	-7.568218	0.000000	0.000000	6.425447	0.000000	0.000000	21.076750	0.000000	0.000000	6.481434	0.000000	0.000000	-7.520401	0.000000	0.000000	42.574615	0.000000	0.000000	-7.568218	0.000000	0.000000	6.425447	0.000000	0.000000	41.722755	309.446045	846.257385	207.014801	521.141541	718.752197	147.087723
266	1.766667	349.588470	1634.646240	-761.993164	259.131805	1703.183105	-743.997620	206.166367	1600.004272	-747.861816	327.328796	1167.365479	-27.542486	349.356537	1114.211914	4.823173	329.983429	1166.295898	28.513254	274.801880	1267.829346	-213.611786	184.330490	1229.908691	-149.916031	215.114944	1170.881836	-238.348999	229.859756	1076.188721	-215.887238	248.304123	1008.299438	-216.510529	286.971802	1026.426636	-196.310638	282.260284	1101.621460	-196.162537	445.774109	737.398071	-199.741089	515.443176	747.534729	-264.443848	548.012329	823.220642	-159.477112	458.240509	771.884827	-141.926727	530.564575	703.175293	-191.276199	580.111206	701.048218	-176.403290	543.626770	726.506897	-148.187347	288.173889	1256.498413	237.760406	242.033920	1159.513306	263.754272	205.412857	1218.217896	173.647705	307.714386	1067.344482	217.174301	317.508118	1006.325378	214.019363	263.560822	989.889771	233.307510	255.597427	1057.403198	234.051315	470.659454	779.372498	154.166000	566.175964	817.356567	154.603088	538.115723	738.765808	253.794266	458.756836	730.375732	195.902557	553.674805	728.198486	128.599060	591.556274	708.120300	153.804184	543.438293	698.342529	178.253189	330.678375	853.735352	228.946899	288.130951	838.766724	185.077225	521.134949	721.644958	122.414284	521.169434	715.861938	171.784363	559.817932	708.077820	150.838211	604.012329	704.383240	122.618561	607.237854	694.804871	149.694550	580.431458	668.740417	172.443237	190.168182	1160.827515	145.055374	157.261398	1036.934326	104.857658	175.228928	1176.686768	77.682648	292.682434	1155.728271	130.637146	267.509735	1187.825195	169.496414	266.037140	1144.339478	156.160126	196.702957	1253.262695	2.520116	152.264008	1097.250000	15.892632	301.174469	1176.290405	2.380136	353.952057	1009.336792	1.603686	0.000000	0.000000	40.507954	0.000000	0.000000	-9.983989	0.000000	0.000000	-19.014721	0.000000	0.000000	40.507954	0.000000	0.000000	-9.983989	0.000000	0.000000	1.690928	0.000000	0.000000	49.722374	0.000000	0.000000	138.779816	0.000000	0.000000	-16.620615	0.000000	0.000000	4.818459	0.000000	0.000000	10.474346	0.000000	0.000000	15.440677	0.000000	0.000000	-11.123513	0.000000	0.000000	0.220882	0.000000	0.000000	-0.206969	0.000000	0.000000	-0.035107	0.000000	0.000000	6.523250	0.000000	0.000000	-7.574672	0.000000	0.000000	21.925524	0.000000	0.000000	-7.623453	0.000000	0.000000	6.466083	0.000000	0.000000	21.061972	0.000000	0.000000	6.523250	0.000000	0.000000	-7.574672	0.000000	0.000000	42.631172	0.000000	0.000000	-7.623453	0.000000	0.000000	6.466083	0.000000	0.000000	41.767620	309.404663	846.251038	207.012054	521.152222	718.753418	147.099319
267	1.773333	350.292999	1634.583862	-761.612732	259.898926	1703.255493	-743.574097	206.807968	1600.111816	-747.442627	327.311096	1167.375000	-27.560658	349.368317	1114.215942	4.815330	329.954956	1166.289795	28.523861	274.818695	1267.874023	-213.585831	184.315704	1229.886353	-149.928619	215.102158	1170.885742	-238.352448	229.850952	1076.197998	-215.897949	248.296326	1008.289124	-216.500824	286.966919	1026.435791	-196.323929	282.207214	1101.627441	-196.188293	445.787750	737.376465	-199.730789	515.439819	747.519104	-264.443237	547.992249	823.215271	-159.449768	458.256378	771.869019	-141.923721	530.561584	703.176575	-191.280396	580.119568	701.090271	-176.425980	543.642883	726.531006	-148.208435	288.167480	1256.483276	237.752518	242.003937	1159.510620	263.780884	205.376968	1218.212891	173.664734	307.700836	1067.366089	217.215759	317.515839	1006.329956	214.007538	263.544739	989.882263	233.294968	255.609711	1057.380127	234.014099	470.669922	779.400818	154.173370	566.195312	817.366028	154.578842	538.110596	738.761414	253.831711	458.748291	730.371704	195.911362	553.672974	728.208740	128.604797	591.551941	708.112305	153.774567	543.449829	698.348328	178.255890	330.696381	853.738586	228.907135	288.176941	838.779663	185.007050	521.131897	721.644409	122.425552	521.165344	715.865723	171.796143	559.816406	708.082581	150.832336	603.990784	704.374146	122.583298	607.229431	694.788086	149.654984	580.425720	668.730652	172.414978	190.110199	1160.819580	145.090836	157.157608	1036.927612	104.926460	175.159485	1176.669312	77.718430	292.619537	1155.687378	130.649170	267.465485	1187.799683	169.507858	265.976990	1144.311646	156.180862	196.627792	1253.180054	2.505294	152.280914	1097.136963	15.829121	301.146362	1176.271729	2.372904	354.026276	1009.350647	1.569445	0.000000	0.000000	40.456474	0.000000	0.000000	-9.973332	0.000000	0.000000	-18.957893	0.000000	0.000000	40.456474	0.000000	0.000000	-9.973332	0.000000	0.000000	1.726410	0.000000	0.000000	49.695133	0.000000	0.000000	138.801315	0.000000	0.000000	-16.592297	0.000000	0.000000	4.770089	0.000000	0.000000	10.489888	0.000000	0.000000	15.427177	0.000000	0.000000	-11.180319	0.000000	0.000000	0.234732	0.000000	0.000000	-0.171871	0.000000	0.000000	-0.049292	0.000000	0.000000	6.509408	0.000000	0.000000	-7.572461	0.000000	0.000000	21.929827	0.000000	0.000000	-7.621020	0.000000	0.000000	6.452398	0.000000	0.000000	21.068373	0.000000	0.000000	6.509408	0.000000	0.000000	-7.572461	0.000000	0.000000	42.614132	0.000000	0.000000	-7.621020	0.000000	0.000000	6.452398	0.000000	0.000000	41.752674	309.436646	846.259155	206.957092	521.148621	718.755066	147.110840
268	1.780000	350.952362	1634.538086	-761.198425	260.669464	1703.301514	-743.171753	207.401672	1600.221802	-747.012451	327.283966	1167.393066	-27.568905	349.353973	1114.215332	4.830192	329.960480	1166.294678	28.493284	274.819031	1267.862915	-213.583328	184.308731	1229.875366	-149.913422	215.056381	1170.884521	-238.340973	229.820114	1076.189941	-215.907700	248.277527	1008.322388	-216.497147	286.965210	1026.440430	-196.302017	282.200592	1101.612915	-196.206100	445.774628	737.388794	-199.721848	515.423157	747.516052	-264.452362	547.987000	823.229309	-159.417633	458.232178	771.883301	-141.916473	530.562439	703.192505	-191.273544	580.100464	701.069458	-176.428131	543.601257	726.524719	-148.226028	288.144592	1256.499512	237.726547	242.020386	1159.495483	263.739471	205.363403	1218.195557	173.658676	307.671295	1067.357300	217.230270	317.494629	1006.319336	214.007950	263.527161	989.876892	233.305450	255.592972	1057.393311	234.015594	470.645660	779.381775	154.174957	566.187683	817.357910	154.589478	538.089233	738.775696	253.829315	458.733704	730.372986	195.911011	553.677979	728.209045	128.610596	591.542358	708.114990	153.828812	543.427734	698.344299	178.274368	330.664001	853.732910	228.914169	288.142242	838.776245	185.015518	521.123291	721.632935	122.435226	521.152039	715.860901	171.806595	559.810364	708.081116	150.856674	604.007690	704.377258	122.642906	607.227051	694.796326	149.718719	580.411011	668.737122	172.462036	190.111481	1160.806274	145.065887	157.205917	1036.908081	104.882271	175.141891	1176.663208	77.699333	292.620453	1155.721924	130.605011	267.459290	1187.815186	169.474640	265.987427	1144.329346	156.139114	196.635742	1253.214111	2.518196	152.264465	1097.183594	15.908960	301.139679	1176.285889	2.369690	353.987610	1009.354492	1.598853	0.000000	0.000000	40.471695	0.000000	0.000000	-9.967340	0.000000	0.000000	-18.998726	0.000000	0.000000	40.471695	0.000000	0.000000	-9.967340	0.000000	0.000000	1.687482	0.000000	0.000000	49.708260	0.000000	0.000000	138.804138	0.000000	0.000000	-16.607622	0.000000	0.000000	4.814114	0.000000	0.000000	10.486894	0.000000	0.000000	15.448479	0.000000	0.000000	-11.137933	0.000000	0.000000	0.216415	0.000000	0.000000	-0.182821	0.000000	0.000000	-0.027069	0.000000	0.000000	6.507461	0.000000	0.000000	-7.566207	0.000000	0.000000	21.903728	0.000000	0.000000	-7.614697	0.000000	0.000000	6.450561	0.000000	0.000000	21.043240	0.000000	0.000000	6.507461	0.000000	0.000000	-7.566207	0.000000	0.000000	42.589935	0.000000	0.000000	-7.614697	0.000000	0.000000	6.450561	0.000000	0.000000	41.729446	309.403137	846.254578	206.964844	521.137695	718.746948	147.120911
